<svg id="Layer_1" data-name="Layer 1" xmlns="http://www.w3.org/2000/svg" viewBox="0 0 274.3 156.2"><defs><style>.cls-1{fill:#8a1744;}.cls-2,.cls-6{fill:#e56031;}.cls-12,.cls-14,.cls-2,.cls-4,.cls-5,.cls-8{stroke:#e56031;}.cls-14,.cls-2,.cls-3,.cls-5,.cls-8{stroke-miterlimit:10;}.cls-3,.cls-8,.cls-9{fill:#043730;}.cls-3{stroke:#fff;}.cls-4,.cls-5{fill:#fff;}.cls-12,.cls-14,.cls-4{stroke-linecap:round;}.cls-12,.cls-4{stroke-linejoin:round;}.cls-7{fill:#f15822;}.cls-10{fill:#f38221;}.cls-11{fill:#f26a21;}.cls-12,.cls-14{fill:none;}.cls-13{fill:#a91e54;}.cls-15,.cls-17{isolation:isolate;}.cls-16{fill:#416ab3;}.cls-17{font-size:14.52px;fill:#426ab2;font-family:ArialMT, Arial;}</style></defs><g id="OBJECTS"><path class="cls-1" d="M110.4,60.6c5.3-5.3,16.8-17.1,32.4-11.3C154.6,53.7,179.6,64.2,196,69l3.8-.7a69.15,69.15,0,1,0-6,53.5c-22.1-.3-27.4-17.2-32.6-14-1.8,1.1-5.7,3.6-10.4,6.1l5.3,6.4c10.5,13.1-2.4,21.7-2.4,21.7l-3.3-3.7a19.69,19.69,0,0,1-6.6,8.3l-5.2-5.9a16.51,16.51,0,0,1-2.5,2.1l-16-18,4-15.5s.3.1,1.2.5c3.6-10.7,22.3-26.1,27.8-30.6l-1.8-.9H129.8s-1.1,4.2-10.4,10.4c11.1,30.4-12.4,35.2-12.4,35.2S99.5,97.1,95.5,87.1C91.4,77.4,105.1,65.9,110.4,60.6Z" transform="translate(-64.2 -12.9)"/><path class="cls-2" d="M144.5,116.8a6.94,6.94,0,0,1-1.3.5l.8,1Z" transform="translate(-64.2 -12.9)"/><path class="cls-3" d="M110.5,100.4c11.3,18,21.6,7.6,21.6,7.6l12.6-36.2-20.6-2-15,24.3Z" transform="translate(-64.2 -12.9)"/><path class="cls-4" d="M206.9,66.9,196,69c-16.4-4.9-41.4-15.3-53.2-19.7-15.5-5.8-27,6-32.4,11.3s-19,16.8-15.1,26.6c4,10,11.5,36.8,11.5,36.8s23.5-4.9,12.4-35.2c9.3-6.2,10.4-10.4,10.4-10.4h21.5l58.5,31.1" transform="translate(-64.2 -12.9)"/><path class="cls-5" d="M141,127.8,153.6,142s13-8.6,2.4-21.7l-9.1-10.9Z" transform="translate(-64.2 -12.9)"/><path class="cls-6" d="M137.7,134l4.9,5.9a5.83,5.83,0,0,0,9-7.4l-4.9-5.9Z" transform="translate(-64.2 -12.9)"/><path class="cls-5" d="M129.1,130.1l14.6,16.5s15.1-10,2.8-25.2l-10.6-12.7Z" transform="translate(-64.2 -12.9)"/><path class="cls-6" d="M128.2,135.7l4.9,5.9a5.83,5.83,0,1,0,9-7.4l-4.9-5.9Z" transform="translate(-64.2 -12.9)"/><path class="cls-5" d="M120,124.9l16,18s16.4-10.9,3.1-27.5c-12.2-4.9-15.1-6-15.1-6Z" transform="translate(-64.2 -12.9)"/><path class="cls-7" d="M120.2,131.9l4.9,5.9a5.83,5.83,0,0,0,9-7.4l-4.9-5.9Z" transform="translate(-64.2 -12.9)"/><path class="cls-8" d="M140.1,117.1s24.8,17.5,56.5,4.7-27.9-29-27.9-29l-22.4,11.7Z" transform="translate(-64.2 -12.9)"/><path class="cls-9" d="M161.2,37.6l-61,111a71.28,71.28,0,0,0,12.7,5.4L169.2,51.4" transform="translate(-64.2 -12.9)"/><polyline class="cls-9" points="105 38.5 118 14.8 106 8.2 97 24.7"/><path class="cls-9" d="M98.4,153.9l-1,15.2,12.9-9.7A75.39,75.39,0,0,1,98.4,153.9Z" transform="translate(-64.2 -12.9)"/><path class="cls-4" d="M225.7,108.9c-13.3,2.7-22.6,12.4-29.9,12.9-23.7.7-29.3-17.3-34.6-14s-29.7,19.1-35.9,8.2,29.3-38,29.3-38" transform="translate(-64.2 -12.9)"/><path class="cls-10" d="M137.2,101.6l-6.4,4.3a5.82,5.82,0,1,0,6.6,9.6l6.4-4.3Z" transform="translate(-64.2 -12.9)"/><path class="cls-11" d="M98.9,109.5l2,7.4A5.72,5.72,0,0,0,108,121a5.8,5.8,0,0,0,4.1-7.1l-7-7.4Z" transform="translate(-64.2 -12.9)"/><path class="cls-12" d="M107.8,86a23.15,23.15,0,0,0,11.5,2.8" transform="translate(-64.2 -12.9)"/><path class="cls-12" d="M125.8,72.5a12.64,12.64,0,0,0,3.9,5.8" transform="translate(-64.2 -12.9)"/><path class="cls-13" d="M184.3,24.9l.7-1.2a7.27,7.27,0,1,0-12.7-7.1l-.7,1.2Z" transform="translate(-64.2 -12.9)"/><path class="cls-14" d="M154.6,78a28.36,28.36,0,0,1,14.8-4" transform="translate(-64.2 -12.9)"/><line class="cls-14" x1="73.9" y1="65.6" x2="59.5" y2="92.1"/></g><g id="TEXTS"><g class="cls-15"><path class="cls-16" d="M222.8,60.9h6.4V95h-6.4Zm2.4,0h20.5v6.2H225.2Zm0,14.1h17.9v6.2H225.2Zm0,13.8h20.5V95H225.2Z" transform="translate(-64.2 -12.9)"/><path class="cls-16" d="M257.5,86.9a1.74,1.74,0,0,0,1.9,1.9h1.1V95h-3.3a5.8,5.8,0,0,1-4.5-1.7,6.93,6.93,0,0,1-1.6-4.8V60.9h6.4Z" transform="translate(-64.2 -12.9)"/><path class="cls-16" d="M264.6,60.9H271v6.4h-6.4Zm0,9.7H271V95h-6.4Z" transform="translate(-64.2 -12.9)"/><path class="cls-16" d="M277,70.6h6.4V95H277Zm14.2,10.3a4.86,4.86,0,0,0-1.1-3.3,3.77,3.77,0,0,0-3-1.2,3.47,3.47,0,0,0-3.8,3.8l-.5-5.4a8.51,8.51,0,0,1,2.7-3.4,6.15,6.15,0,0,1,3.8-1.2,7.83,7.83,0,0,1,4.4,1.2,7.35,7.35,0,0,1,2.8,3.6,16.14,16.14,0,0,1,1,5.7V95h-6.4V80.9Zm14.2,0a4.83,4.83,0,0,0-1-3.3,3.56,3.56,0,0,0-2.9-1.2,3.61,3.61,0,0,0-2.8,1.1,4.89,4.89,0,0,0-1,3.2l-1.2-5.6a10.71,10.71,0,0,1,3-3.6,6.68,6.68,0,0,1,4.1-1.3,8.17,8.17,0,0,1,4.5,1.2,6.83,6.83,0,0,1,2.8,3.6,16.14,16.14,0,0,1,1,5.7V95h-6.4V80.9Z" transform="translate(-64.2 -12.9)"/><path class="cls-16" d="M324.5,85.4a3.34,3.34,0,0,0,1,2.7,4.14,4.14,0,0,0,2.8,1,3.47,3.47,0,0,0,3.8-3.8l.3,5.3a8.57,8.57,0,0,1-2.3,3.4,5.36,5.36,0,0,1-3.9,1.4,7.3,7.3,0,0,1-6-2.5,10.92,10.92,0,0,1-2.1-7.1v-15h6.4V85.4Zm7.6-14.8h6.4V95h-6.4Z" transform="translate(-64.2 -12.9)"/></g><text class="cls-17" transform="translate(158.65 111.06)">learning platform</text></g></svg>